<svg width="24" height="24" viewBox="0 0 24 24" fill="none" xmlns="http://www.w3.org/2000/svg">
<g clip-path="url(#clip0_4612_13491)">
<path d="M19.4557 19.5698C19.3767 19.6488 19.2696 19.6932 19.1579 19.6932C19.0462 19.6932 18.939 19.6488 18.86 19.5698L5.5435 6.25331C5.46451 6.17432 5.42014 6.06719 5.42014 5.95549C5.42014 5.84379 5.46451 5.73666 5.5435 5.65767C5.62248 5.57869 5.72961 5.53432 5.84131 5.53431C5.95302 5.53432 6.06014 5.57869 6.13913 5.65767L19.4557 18.9742C19.5347 19.0532 19.579 19.1603 19.579 19.272C19.579 19.3837 19.5347 19.4909 19.4557 19.5698ZM10.7457 21.3514C10.6968 21.4003 10.6365 21.4364 10.5703 21.4565C10.504 21.4767 10.4338 21.4801 10.3659 21.4666C10.298 21.4531 10.2345 21.4231 10.181 21.3792C10.1274 21.3353 10.0855 21.2789 10.059 21.215L9.41451 19.658C9.37172 19.5548 9.37165 19.4389 9.41431 19.3357C9.45698 19.2325 9.5389 19.1505 9.64204 19.1076L11.199 18.4632C11.3017 18.4226 11.4163 18.424 11.518 18.4671C11.6197 18.5102 11.7004 18.5915 11.7427 18.6935C11.785 18.7955 11.7856 18.91 11.7443 19.0124C11.703 19.1149 11.6231 19.197 11.5219 19.2411L10.3538 19.7253L10.8375 20.8927C10.8692 20.9697 10.8775 21.0543 10.8611 21.136C10.8448 21.2176 10.8046 21.2926 10.7457 21.3514ZM21.2366 10.8605C21.1777 10.9194 21.1026 10.9596 21.0208 10.9758C20.9391 10.992 20.8544 10.9836 20.7774 10.9517L19.6099 10.468L19.1263 11.6354C19.1057 11.6875 19.0751 11.7349 19.036 11.7749C18.9969 11.8149 18.9503 11.8468 18.8988 11.8686C18.8473 11.8904 18.792 11.9017 18.7361 11.9019C18.6802 11.9021 18.6248 11.8912 18.5731 11.8698C18.5214 11.8483 18.4746 11.8168 18.4352 11.7771C18.3959 11.7373 18.3649 11.6902 18.3439 11.6383C18.323 11.5864 18.3126 11.5309 18.3134 11.475C18.3142 11.4191 18.3261 11.3639 18.3484 11.3126L18.9929 9.75562C19.0357 9.65248 19.1177 9.57056 19.2209 9.5279C19.3241 9.48523 19.4401 9.4853 19.5432 9.52809L21.1002 10.1726C21.1644 10.199 21.221 10.241 21.2651 10.2946C21.3091 10.3482 21.3392 10.4119 21.3527 10.48C21.3662 10.5481 21.3627 10.6184 21.3424 10.6848C21.3222 10.7512 21.2858 10.8116 21.2366 10.8605Z" fill="#31CCC2"/>
<path d="M6.14114 5.65922L5.54551 6.25485C5.05292 6.74743 4.2512 6.74743 3.75861 6.25485C3.26602 5.76226 3.26602 4.96054 3.75861 4.46795L4.35424 3.87232C4.84683 3.37973 5.64855 3.37973 6.14114 3.87232C6.63373 4.36491 6.63373 5.16663 6.14114 5.65922ZM4.35424 5.06358C4.19044 5.22738 4.19044 5.49542 4.35424 5.65922C4.51804 5.82301 4.78608 5.82301 4.94987 5.65922L5.54551 5.06358C5.7093 4.89979 5.7093 4.63175 5.54551 4.46795C5.38171 4.30415 5.11367 4.30415 4.94987 4.46795L4.35424 5.06358ZM8.82148 5.95703L5.84332 8.93519C5.76434 9.01418 5.65721 9.05855 5.54551 9.05855C5.4338 9.05855 5.32668 9.01418 5.24769 8.93519C5.1687 8.8562 5.12433 8.74908 5.12433 8.63737C5.12433 8.52567 5.1687 8.41854 5.24769 8.33956L8.22585 5.3614C8.30483 5.28241 8.41196 5.23804 8.52367 5.23804C8.63537 5.23804 8.7425 5.28241 8.82148 5.3614C8.90047 5.44039 8.94484 5.54751 8.94484 5.65922C8.94484 5.77092 8.90047 5.87805 8.82148 5.95703Z" fill="#31CCC2"/>
<path d="M12.2404 8.48872L11.3469 9.38217C11.268 9.46116 11.1608 9.50553 11.0491 9.50553C10.9374 9.50553 10.8303 9.46116 10.7513 9.38217C10.6723 9.30319 10.628 9.19606 10.628 9.08435C10.628 8.97265 10.6723 8.86552 10.7513 8.78654L11.6448 7.89309C12.8759 6.66192 12.8759 4.65702 11.6448 3.42585C10.4136 2.19468 8.40869 2.19468 7.17752 3.42585L6.28407 4.3193C6.20509 4.39829 6.09796 4.44266 5.98626 4.44266C5.87455 4.44266 5.76743 4.39829 5.68844 4.3193C5.60946 4.24031 5.56508 4.13319 5.56508 4.02148C5.56508 3.90978 5.60946 3.80265 5.68844 3.72367L6.58189 2.83022C8.14185 1.27026 10.6804 1.27026 12.2404 2.83022C13.8004 4.39018 13.8004 6.92876 12.2404 8.48872Z" fill="#31CCC2"/>
<path d="M9.41365 16.0817C8.59227 16.9031 7.25686 16.9031 6.43549 16.0817C5.61411 15.2604 5.61411 13.925 6.43549 13.1036L10.6049 8.93415C10.6839 8.85517 10.791 8.81079 10.9027 8.81079C11.0144 8.81079 11.1216 8.85517 11.2005 8.93415C11.2795 9.01314 11.3239 9.12027 11.3239 9.23197C11.3239 9.34367 11.2795 9.4508 11.2005 9.52979L7.03112 13.6992C6.53853 14.1918 6.53853 14.9935 7.03112 15.4861C7.52371 15.9787 8.32543 15.9787 8.81801 15.4861C8.897 15.4071 9.00413 15.3627 9.11583 15.3627C9.22753 15.3627 9.33466 15.4071 9.41365 15.4861C9.49263 15.5651 9.53701 15.6722 9.53701 15.7839C9.53701 15.8956 9.49263 16.0027 9.41365 16.0817ZM18.4119 18.528C17.31 19.6252 15.8981 20.3582 14.3667 20.6282C12.8353 20.8982 11.258 20.6922 9.84727 20.0379C9.79713 20.0145 9.75209 19.9815 9.71471 19.9407C9.67734 19.8999 9.64837 19.8522 9.62946 19.8002C9.61054 19.7482 9.60205 19.693 9.60447 19.6377C9.60689 19.5824 9.62017 19.5282 9.64356 19.478C9.66695 19.4279 9.69998 19.3828 9.74078 19.3455C9.78157 19.3081 9.82933 19.2791 9.88132 19.2602C9.93331 19.2413 9.98852 19.2328 10.0438 19.2352C10.0991 19.2377 10.1533 19.2509 10.2035 19.2743C12.7611 20.4668 15.8209 19.9277 17.8168 17.9318C19.8128 15.9358 20.3524 12.8766 19.1594 10.3184C19.136 10.2683 19.1227 10.214 19.1203 10.1587C19.1179 10.1035 19.1264 10.0483 19.1453 9.99627C19.1642 9.94428 19.1932 9.89652 19.2305 9.85572C19.2679 9.81493 19.3129 9.7819 19.3631 9.75851C19.4132 9.73512 19.4675 9.72184 19.5227 9.71942C19.578 9.717 19.6332 9.72549 19.6852 9.7444C19.7372 9.76332 19.785 9.79229 19.8258 9.82966C19.8666 9.86703 19.8996 9.91208 19.923 9.96221C20.5768 11.3733 20.7824 12.9508 20.5122 14.4823C20.242 16.0139 19.509 17.4258 18.4119 18.528Z" fill="#31CCC2"/>
</g>
<defs>
<clipPath id="clip0_4612_13491">
<rect width="24" height="24" fill="white"/>
</clipPath>
</defs>
</svg>
