<svg width="24" height="24" viewBox="0 0 24 24" fill="none" xmlns="http://www.w3.org/2000/svg">
<path fill-rule="evenodd" clip-rule="evenodd" d="M4.28713 17.856C4.34627 17.744 4.46258 17.6738 4.58929 17.6738H21.536C21.6662 17.6738 21.7851 17.7479 21.8426 17.8647C21.9001 17.9816 21.8861 18.1209 21.8066 18.2241L19.2783 21.5041C19.1631 21.6535 18.9485 21.6813 18.7991 21.5661C18.6496 21.4509 18.6219 21.2364 18.7371 21.0869L20.8412 18.3572H4.7953L3.59312 20.635C3.50504 20.8019 3.29836 20.8657 3.13148 20.7777C2.9646 20.6896 2.90071 20.4829 2.98879 20.316L4.28713 17.856Z" fill="#31CCC2"/>
<path fill-rule="evenodd" clip-rule="evenodd" d="M8.72119 15.8845C8.7782 15.7664 8.89776 15.6914 9.02888 15.6914H14.5639C14.6916 15.6914 14.8087 15.7627 14.8674 15.8761L15.8924 17.8578C15.9791 18.0254 15.9135 18.2315 15.7459 18.3182C15.5783 18.4049 15.3721 18.3393 15.2854 18.1717L14.356 16.3747H9.24334L8.3799 18.1633C8.29787 18.3332 8.09361 18.4045 7.92368 18.3224C7.75374 18.2404 7.68249 18.0361 7.76453 17.8662L8.72119 15.8845Z" fill="#31CCC2"/>
<path fill-rule="evenodd" clip-rule="evenodd" d="M11.8339 1C12.0226 1 12.1755 1.15297 12.1755 1.34167V15.965C12.1755 16.1537 12.0226 16.3067 11.8339 16.3067C11.6452 16.3067 11.4922 16.1537 11.4922 15.965V1.34167C11.4922 1.15297 11.6452 1 11.8339 1Z" fill="#31CCC2"/>
<path fill-rule="evenodd" clip-rule="evenodd" d="M12.0192 1.05421C12.178 1.15616 12.2241 1.36753 12.1221 1.52632L4.12334 13.9834H16.9334L11.551 5.97396C11.4458 5.81734 11.4874 5.60505 11.644 5.4998C11.8007 5.39456 12.0129 5.4362 12.1182 5.59282L17.8582 14.1345C17.9286 14.2393 17.9355 14.3743 17.8762 14.4857C17.8168 14.5971 17.7009 14.6667 17.5746 14.6667H3.49792C3.37297 14.6667 3.25798 14.5985 3.19808 14.4889C3.13817 14.3792 3.1429 14.2456 3.21042 14.1405L11.5471 1.1571C11.6491 0.99832 11.8604 0.952252 12.0192 1.05421Z" fill="#31CCC2"/>
<path fill-rule="evenodd" clip-rule="evenodd" d="M1 21.6608C1 21.4738 1.15158 21.3223 1.33856 21.3223H21.878C22.065 21.3223 22.2166 21.4738 22.2166 21.6608C22.2166 21.8478 22.065 21.9994 21.878 21.9994H1.33856C1.15158 21.9994 1 21.8478 1 21.6608Z" fill="#31CCC2"/>
</svg>
