<svg width="170" height="170" viewBox="0 0 170 170" fill="none" xmlns="http://www.w3.org/2000/svg">
<path fill-rule="evenodd" clip-rule="evenodd" d="M51 140.25H21.25V144.5H56.2414C63.9756 149.799 74.0208 153 85 153C95.9792 153 106.024 149.799 113.759 144.5H148.75V140.25H119H51Z" fill="#051629"/>
<path fill-rule="evenodd" clip-rule="evenodd" d="M131.75 59.5H161.5V55.25H126.636C115.859 47.357 101.179 42.5 85 42.5C68.821 42.5 54.1406 47.357 43.3642 55.25H8.5V59.5H38.25H131.75Z" fill="#051629"/>
<rect x="59.5" width="51" height="4.25" fill="#051629"/>
<path fill-rule="evenodd" clip-rule="evenodd" d="M119 29.75H148.75V25.5H113.759C106.024 20.2007 95.9792 17 85 17C74.0208 17 63.9756 20.2007 56.2414 25.5H21.25V29.75H51H119Z" fill="#051629"/>
<path fill-rule="evenodd" clip-rule="evenodd" d="M38.25 110.5H8.5V114.75H43.3642C54.1406 122.643 68.821 127.5 85 127.5C101.179 127.5 115.859 122.643 126.636 114.75H161.5V110.5H131.75H38.25Z" fill="#051629"/>
<path fill-rule="evenodd" clip-rule="evenodd" d="M131.81 82.875C120.773 75.6314 103.904 71.0007 85.001 71.0007C66.0976 71.0007 49.2291 75.6314 38.1916 82.875H0V87.125H38.1896C49.2272 94.3686 66.0957 98.9993 84.999 98.9993C103.902 98.9993 120.771 94.3686 131.808 87.125H170V82.875H131.81Z" fill="#051629"/>
<rect x="59.5" y="165.75" width="51" height="4.25" fill="#051629"/>
</svg>
