<svg width="714" height="152" viewBox="0 0 714 152" fill="none" xmlns="http://www.w3.org/2000/svg">
<path d="M37.3065 14.1922C30.0925 2.4682 16.489 2.46821 0 2.46821V138.219C0 151.589 27.6192 151.589 27.6192 151.589V63.5562C27.6192 53.4777 25.3519 41.7537 25.3519 41.7537L85.3308 136.779C85.3308 136.779 91.7204 151.589 122.843 151.589V15.8376C122.843 2.46821 95.2243 2.46821 95.2243 2.46821V86.7984C95.2243 96.8769 97.6976 108.601 97.6976 108.601L37.3065 14.1922Z" fill="#2E3642"/>
<path d="M202.059 129.581C202.059 129.581 193.814 133.283 182.89 133.283C171.142 133.283 164.34 128.552 164.34 119.296C164.34 100.991 197.318 106.955 202.059 96.0541V129.581ZM137.751 119.708C137.751 144.184 158.569 152 179.798 152C191.547 152 201.852 148.298 212.158 148.298C217.311 148.298 222.67 148.915 228.029 151.589V76.3085C228.029 53.889 211.952 41.1367 181.653 41.1367C164.752 41.1367 140.637 46.4844 140.637 64.3789C140.637 69.9323 142.492 76.3085 148.469 84.3302C148.469 67.0528 164.134 61.088 181.447 61.088C197.318 61.088 201.44 67.6698 201.44 75.0744C192.99 91.3234 137.751 81.2449 137.751 119.708Z" fill="#2E3642"/>
<path d="M270.113 55.5345C270.113 42.5765 243.318 42.1651 243.318 42.1651V118.062C243.318 144.801 265.784 152 287.014 152C298.144 152 307.625 147.681 317.725 147.681C328.237 147.681 336.275 152 336.275 152V55.5345C336.275 42.1651 309.48 42.1651 309.48 42.1651V129.169C309.48 129.169 300.411 132.049 289.9 132.049C275.266 132.049 270.113 125.878 270.113 114.977V55.5345Z" fill="#2E3642"/>
<path d="M348.702 43.6049C348.702 102.842 438.361 70.138 438.361 108.189C438.361 122.176 427.849 130.609 406.413 130.609C386.42 130.609 359.419 126.907 359.419 106.955C354.267 114.36 351.999 120.736 351.999 126.084C351.999 145.418 380.649 151.794 406.413 151.794C441.452 151.794 467.01 136.779 467.01 106.338C467.01 41.1367 377.145 74.4574 377.145 40.5196C377.145 26.5332 390.13 21.3911 408.062 21.3911C430.941 21.3911 455.262 25.7104 455.262 46.2788C459.797 38.0514 462.064 31.0582 462.064 25.5047C462.064 5.75913 437.536 0 407.856 0C375.29 0 348.702 10.2842 348.702 43.6049Z" fill="#2E3642"/>
<path d="M517.569 138.219C517.569 151.589 545.189 151.589 545.189 151.589V88.2382C569.098 63.9675 578.579 31.0582 595.274 3.29094C595.274 3.29094 587.029 1.23411 582.701 1.23411C575.281 1.23411 565.181 3.29094 559.41 14.6035L549.311 34.5548C543.127 46.6901 537.562 59.0311 531.379 67.2585C524.783 58.8254 519.218 46.6901 512.829 33.7321L503.348 14.6035C497.783 3.29094 487.065 1.23411 480.057 1.23411C474.904 1.23411 467.484 3.08526 467.484 3.08526C485.828 31.6752 492.63 63.3505 517.569 88.2382V138.219Z" fill="#2E3642"/>
<path d="M595.691 43.6049C595.691 102.842 685.35 70.138 685.35 108.189C685.35 122.176 674.839 130.609 653.403 130.609C633.41 130.609 606.409 126.907 606.409 106.955C601.256 114.36 598.989 120.736 598.989 126.084C598.989 145.418 627.639 151.794 653.403 151.794C688.442 151.794 714 136.779 714 106.338C714 41.1367 624.135 74.4574 624.135 40.5196C624.135 26.5332 637.12 21.3911 655.052 21.3911C677.93 21.3911 702.252 25.7104 702.252 46.2788C706.786 38.0514 709.053 31.0582 709.053 25.5047C709.053 5.75913 684.526 0 654.846 0C622.28 0 595.691 10.2842 595.691 43.6049Z" fill="#2E3642"/>
</svg>
