<svg width="24" height="24" viewBox="0 0 24 24" fill="none" xmlns="http://www.w3.org/2000/svg">
<g clip-path="url(#clip0_4612_13499)">
<path fill-rule="evenodd" clip-rule="evenodd" d="M16.7639 8.20391C16.77 8.40773 16.6097 8.57789 16.4059 8.58398L11.4584 8.73166C11.2545 8.73775 11.0844 8.57745 11.0783 8.37363C11.0722 8.1698 11.2325 7.99964 11.4363 7.99356L16.3838 7.84587C16.5877 7.83979 16.7578 8.00008 16.7639 8.20391Z" fill="#31CCC2"/>
<path fill-rule="evenodd" clip-rule="evenodd" d="M7.01684 9.75817C7.021 9.96204 6.85911 10.1307 6.65524 10.1348L3.03691 10.2087C2.83304 10.2128 2.6644 10.051 2.66023 9.84708C2.65607 9.64321 2.81797 9.47457 3.02184 9.47041L6.64017 9.39656C6.84404 9.3924 7.01268 9.5543 7.01684 9.75817Z" fill="#31CCC2"/>
<path fill-rule="evenodd" clip-rule="evenodd" d="M23.8886 9.72115C23.9604 9.79071 24.001 9.88642 24.001 9.9864C24.001 10.5797 23.9207 11.5416 23.356 12.7295C22.7923 13.9152 21.7554 15.3062 19.8713 16.7758C19.7105 16.9012 19.4785 16.8725 19.3531 16.7117C19.2277 16.5509 19.2564 16.3189 19.4172 16.1935C21.2252 14.7832 22.1821 13.4789 22.6891 12.4124C23.0851 11.5796 23.2125 10.8797 23.2492 10.3682L14.6196 10.6465L12.873 12.1835C12.8086 12.2402 12.7264 12.2727 12.6406 12.2754L1.10953 12.6335V14.3613L2.80086 16.4755C2.92825 16.6347 2.90243 16.8671 2.7432 16.9945C2.58397 17.1219 2.35163 17.096 2.22424 16.9368L0.452001 14.7215C0.399627 14.656 0.371094 14.5747 0.371094 14.4909V12.2756C0.371094 12.0761 0.529495 11.9127 0.72885 11.9065L12.4849 11.5414L14.2313 10.0046C14.2956 9.94799 14.3776 9.91552 14.4633 9.91275L23.6199 9.61738C23.7198 9.61416 23.8168 9.6516 23.8886 9.72115Z" fill="#31CCC2"/>
<path fill-rule="evenodd" clip-rule="evenodd" d="M9.69237 6.16131C9.84819 6.29285 9.86787 6.52579 9.73634 6.68161L4.93651 12.3676C4.80498 12.5234 4.57204 12.5431 4.41622 12.4115C4.2604 12.28 4.24071 12.047 4.37225 11.8912L9.17207 6.20528C9.30361 6.04946 9.53655 6.02978 9.69237 6.16131Z" fill="#31CCC2"/>
<path fill-rule="evenodd" clip-rule="evenodd" d="M13.7287 6.00007C13.8056 5.99862 13.8809 6.02118 13.9443 6.0646L19.3349 9.75677C19.5031 9.872 19.5461 10.1018 19.4309 10.27C19.3156 10.4383 19.0859 10.4812 18.9176 10.366L13.6245 6.7406L5.91525 6.88606C5.71137 6.8899 5.54298 6.72775 5.53913 6.52387C5.53528 6.31999 5.69744 6.1516 5.90132 6.14775L13.7287 6.00007Z" fill="#31CCC2"/>
<path fill-rule="evenodd" clip-rule="evenodd" d="M0 16.8524C0 16.6481 0.165648 16.4824 0.369984 16.4824H22.8157C23.02 16.4824 23.1857 16.6481 23.1857 16.8524C23.1857 17.0567 23.02 17.2224 22.8157 17.2224H0.369984C0.165648 17.2224 0 17.0567 0 16.8524Z" fill="#31CCC2"/>
</g>
<defs>
<clipPath id="clip0_4612_13499">
<rect width="24" height="24" fill="white"/>
</clipPath>
</defs>
</svg>
